<?xml version="1.0" encoding="iso-8859-1"?>
<!-- Generator: Adobe Illustrator 16.0.0, SVG Export Plug-In . SVG Version: 6.00 Build 0)  -->
<!DOCTYPE svg PUBLIC "-//W3C//DTD SVG 1.1//EN" "http://www.w3.org/Graphics/SVG/1.1/DTD/svg11.dtd">
<svg version="1.1" id="Capa_1" xmlns="http://www.w3.org/2000/svg" xmlns:xlink="http://www.w3.org/1999/xlink" x="0px" y="0px"
	 width="32px" height="32px" viewBox="0 0 32 32" style="enable-background:new 0 0 32 32;" xml:space="preserve">
<g>
	<g>
		<path d="M7.913,24.076h16.174V13.769H7.913V24.076z M18.52,16.001h2.41v2.409h-2.41V16.001z M18.52,19.727h2.41v2.409h-2.41
			V19.727z M14.795,16.001h2.411v2.409h-2.411V16.001z M14.794,19.727h2.411v2.409h-2.411V19.727z M11.07,19.727h2.41v2.409h-2.41
			V19.727z"/>
		<path d="M16,0C7.162,0,0,7.163,0,16c0,8.838,7.162,16,16,16c8.837,0,16-7.162,16-16C32,7.163,24.837,0,16,0z M25.203,25.915H6.797
			V7.509h1.956V6.085h0.772v1.424h2.657V6.085h0.773v1.424h2.657V6.085h0.773v1.424h2.657V6.085h0.772v1.424h2.658V6.085h0.771
			v1.424H25.2v18.406H25.203z"/>
	</g>
</g>
<g>
</g>
<g>
</g>
<g>
</g>
<g>
</g>
<g>
</g>
<g>
</g>
<g>
</g>
<g>
</g>
<g>
</g>
<g>
</g>
<g>
</g>
<g>
</g>
<g>
</g>
<g>
</g>
<g>
</g>
</svg>
